<?xml version="1.0" encoding="UTF-8" standalone="no"?>
<!-- Created with Inkscape (http://www.inkscape.org/) -->

<svg
   width="32"
   height="32"
   viewBox="0 0 8.4666665 8.4666666"
   version="1.1"
   id="svg5793"
   xmlns="http://www.w3.org/2000/svg"
   xmlns:svg="http://www.w3.org/2000/svg">
  <defs
     id="defs5790" />
  <g
     id="layer1">
    <path
       style="color:#000000;fill:#000000;stroke-linecap:round;stroke-linejoin:round;-inkscape-stroke:none;paint-order:markers fill stroke"
       d="M 6.4277344,1.4003906 3.4394531,4.3886719 2.0390625,2.9882813 a 0.26460996,0.26460996 0 0 0 -0.375,0 L 0.60742187,4.046875 a 0.26460996,0.26460996 0 0 0 0,0.3730469 L 3.2519531,7.0664062 a 0.26460996,0.26460996 0 0 0 0.375,0 L 7.859375,2.8320313 a 0.26460996,0.26460996 0 0 0 0,-0.3730469 L 6.8007812,1.4003906 a 0.26460996,0.26460996 0 0 0 -0.3730468,0 z M 6.6132812,1.9609375 7.2988281,2.6464844 3.4394531,6.5039062 1.1679687,4.2324219 1.8515625,3.5488281 3.2519531,4.9492187 a 0.26460996,0.26460996 0 0 0 0.375,0 z"
       id="path651" />
  </g>
</svg>
